<svg width="17" height="17" viewBox="0 0 17 17" fill="none" xmlns="http://www.w3.org/2000/svg">
<g id="BellSimple">
<path id="Vector" d="M11.1563 14.875C11.1563 15.0159 11.1003 15.151 11.0007 15.2506C10.9011 15.3503 10.7659 15.4062 10.625 15.4062H6.37503C6.23413 15.4062 6.09901 15.3503 5.99938 15.2506C5.89975 15.151 5.84378 15.0159 5.84378 14.875C5.84378 14.7341 5.89975 14.599 5.99938 14.4993C6.09901 14.3997 6.23413 14.3437 6.37503 14.3437H10.625C10.7659 14.3437 10.9011 14.3997 11.0007 14.4993C11.1003 14.599 11.1563 14.7341 11.1563 14.875ZM14.7323 12.75C14.6401 12.9124 14.5063 13.0472 14.3446 13.1406C14.1829 13.234 13.9992 13.2825 13.8125 13.2812H3.18753C3.00075 13.281 2.81734 13.2315 2.65579 13.1378C2.49423 13.0441 2.36023 12.9094 2.26731 12.7474C2.17438 12.5854 2.1258 12.4017 2.12647 12.2149C2.12714 12.0282 2.17704 11.8449 2.27113 11.6835C2.63968 11.0487 3.18753 9.25305 3.18753 6.90625C3.18753 5.49729 3.74724 4.14603 4.74353 3.14975C5.73981 2.15346 7.09107 1.59375 8.50003 1.59375C9.90899 1.59375 11.2602 2.15346 12.2565 3.14975C13.2528 4.14603 13.8125 5.49729 13.8125 6.90625C13.8125 9.25238 14.361 11.0487 14.7296 11.6835C14.8246 11.8451 14.8749 12.029 14.8752 12.2165C14.8756 12.4039 14.826 12.5881 14.7316 12.75H14.7323ZM13.8125 12.2187C13.2992 11.3375 12.75 9.30019 12.75 6.90625C12.75 5.77908 12.3023 4.69808 11.5052 3.90105C10.7082 3.10402 9.6272 2.65625 8.50003 2.65625C7.37286 2.65625 6.29186 3.10402 5.49483 3.90105C4.6978 4.69808 4.25003 5.77908 4.25003 6.90625C4.25003 9.30086 3.70019 11.3382 3.18753 12.2187H13.8125Z" fill="#505050"/>
</g>
</svg>
